<?xml version="1.0" encoding="UTF-8"?>
<!DOCTYPE svg PUBLIC "-//W3C//DTD SVG 1.1//EN" "http://www.w3.org/Graphics/SVG/1.1/DTD/svg11.dtd">
<svg xmlns="http://www.w3.org/2000/svg" version="1.1" width="905px" height="545px" style="shape-rendering:geometricPrecision; text-rendering:geometricPrecision; image-rendering:optimizeQuality; fill-rule:evenodd; clip-rule:evenodd" xmlns:xlink="http://www.w3.org/1999/xlink">
<g><path style="opacity:1" fill="#fefefe" d="M -0.5,-0.5 C 128.833,-0.5 258.167,-0.5 387.5,-0.5C 337.88,7.94985 303.047,35.2832 283,81.5C 280.441,88.6734 278.607,96.0067 277.5,103.5C 276.844,104.278 276.011,104.944 275,105.5C 186.052,86.8173 111.386,111.151 51,178.5C 21.8381,214.811 4.67143,256.144 -0.5,302.5C -0.5,201.5 -0.5,100.5 -0.5,-0.5 Z"/></g>
<g><path style="opacity:1" fill="#a59cc7" d="M 387.5,-0.5 C 395.5,-0.5 403.5,-0.5 411.5,-0.5C 460.927,5.29849 496.427,30.6318 518,75.5C 520.536,80.607 522.369,85.9403 523.5,91.5C 533.316,130.078 527.316,166.078 505.5,199.5C 487.063,224.556 462.73,240.89 432.5,248.5C 405.012,174.675 353.346,127.342 277.5,106.5C 277.5,105.5 277.5,104.5 277.5,103.5C 278.607,96.0067 280.441,88.6734 283,81.5C 303.047,35.2832 337.88,7.94985 387.5,-0.5 Z"/></g>
<g><path style="opacity:1" fill="#fefefe" d="M 411.5,-0.5 C 575.833,-0.5 740.167,-0.5 904.5,-0.5C 904.5,181.167 904.5,362.833 904.5,544.5C 602.833,544.5 301.167,544.5 -0.5,544.5C -0.5,474.5 -0.5,404.5 -0.5,334.5C 7.46759,415.957 46.8009,477.123 117.5,518C 176.398,547.586 237.065,551.586 299.5,530C 360.119,505.547 403.452,463.381 429.5,403.5C 469.233,448.438 517.899,461.938 575.5,444C 593.72,436.734 609.72,426.234 623.5,412.5C 631.404,446.223 652.737,462.389 687.5,461C 721.669,453.154 738.169,431.654 737,396.5C 735.129,384.428 730.295,373.762 722.5,364.5C 729.03,362.711 735.197,360.044 741,356.5C 741.399,356.728 741.565,357.062 741.5,357.5C 732.228,385.451 740.895,405.617 767.5,418C 794.831,423.091 812.998,412.591 822,386.5C 825.494,363.651 816.994,347.151 796.5,337C 786.621,334.306 776.621,333.806 766.5,335.5C 769.81,329.59 773.31,323.257 777,316.5C 792.149,274.545 782.649,239.378 748.5,211C 722.194,194.155 694.194,190.822 664.5,201C 647.295,208.378 633.628,219.878 623.5,235.5C 617.423,227.759 610.09,221.426 601.5,216.5C 616.151,206.541 626.484,193.207 632.5,176.5C 667.042,185.313 690.875,173.313 704,140.5C 709.648,112.976 700.481,92.1422 676.5,78C 657.899,69.7741 639.899,70.7741 622.5,81C 616.951,85.7212 611.618,90.5545 606.5,95.5C 588.444,82.8541 568.444,78.6874 546.5,83C 538.49,84.9473 530.823,87.7806 523.5,91.5C 522.369,85.9403 520.536,80.607 518,75.5C 496.427,30.6318 460.927,5.29849 411.5,-0.5 Z"/></g>
<g><path style="opacity:1" fill="#fde7e1" d="M 632.5,176.5 C 607.604,164.391 596.437,144.391 599,116.5C 600.957,109.263 603.457,102.263 606.5,95.5C 611.618,90.5545 616.951,85.7212 622.5,81C 639.899,70.7741 657.899,69.7741 676.5,78C 700.481,92.1422 709.648,112.976 704,140.5C 690.875,173.313 667.042,185.313 632.5,176.5 Z"/></g>
<g><path style="opacity:1" fill="#e0dceb" d="M 606.5,95.5 C 603.457,102.263 600.957,109.263 599,116.5C 596.437,144.391 607.604,164.391 632.5,176.5C 626.484,193.207 616.151,206.541 601.5,216.5C 565.028,234.735 533.028,229.068 505.5,199.5C 527.316,166.078 533.316,130.078 523.5,91.5C 530.823,87.7806 538.49,84.9473 546.5,83C 568.444,78.6874 588.444,82.8541 606.5,95.5 Z"/></g>
<g><path style="opacity:1" fill="#f5dde1" d="M 277.5,103.5 C 277.5,104.5 277.5,105.5 277.5,106.5C 353.346,127.342 405.012,174.675 432.5,248.5C 449.123,300.46 448.123,352.127 429.5,403.5C 403.452,463.381 360.119,505.547 299.5,530C 237.065,551.586 176.398,547.586 117.5,518C 46.8009,477.123 7.46759,415.957 -0.5,334.5C -0.5,323.833 -0.5,313.167 -0.5,302.5C 4.67143,256.144 21.8381,214.811 51,178.5C 111.386,111.151 186.052,86.8173 275,105.5C 276.011,104.944 276.844,104.278 277.5,103.5 Z"/></g>
<g><path style="opacity:1" fill="#f8fbc6" d="M 751.5,126.5 C 770.307,123.651 783.807,130.651 792,147.5C 797.194,165.928 791.694,180.095 775.5,190C 755.394,197.525 740.227,192.025 730,173.5C 723.141,151.226 730.308,135.56 751.5,126.5 Z"/></g>
<g><path style="opacity:1" fill="#feebd2" d="M 766.5,335.5 C 758.734,343.607 750.401,350.94 741.5,357.5C 741.565,357.062 741.399,356.728 741,356.5C 735.197,360.044 729.03,362.711 722.5,364.5C 700.519,344.435 676.186,341.102 649.5,354.5C 613.932,326.923 603.098,291.59 617,248.5C 619.18,244.14 621.347,239.807 623.5,235.5C 633.628,219.878 647.295,208.378 664.5,201C 694.194,190.822 722.194,194.155 748.5,211C 782.649,239.378 792.149,274.545 777,316.5C 773.31,323.257 769.81,329.59 766.5,335.5 Z"/></g>
<g><path style="opacity:1" fill="#d1edeb" d="M 505.5,199.5 C 533.028,229.068 565.028,234.735 601.5,216.5C 610.09,221.426 617.423,227.759 623.5,235.5C 621.347,239.807 619.18,244.14 617,248.5C 603.098,291.59 613.932,326.923 649.5,354.5C 629.426,368.653 620.759,387.986 623.5,412.5C 609.72,426.234 593.72,436.734 575.5,444C 517.899,461.938 469.233,448.438 429.5,403.5C 448.123,352.127 449.123,300.46 432.5,248.5C 462.73,240.89 487.063,224.556 505.5,199.5 Z"/></g>
<g><path style="opacity:1" fill="#a1c9f9" d="M 866.5,293.5 C 882.931,291.462 894.764,297.796 902,312.5C 907.132,332.075 900.298,345.242 881.5,352C 855.886,354.053 843.719,342.22 845,316.5C 848.585,305.417 855.752,297.75 866.5,293.5 Z"/></g>
<g><path style="opacity:1" fill="#ffb09f" d="M 741.5,357.5 C 750.401,350.94 758.734,343.607 766.5,335.5C 776.621,333.806 786.621,334.306 796.5,337C 816.994,347.151 825.494,363.651 822,386.5C 812.998,412.591 794.831,423.091 767.5,418C 740.895,405.617 732.228,385.451 741.5,357.5 Z"/></g>
<g><path style="opacity:1" fill="#77cec6" d="M 722.5,364.5 C 730.295,373.762 735.129,384.428 737,396.5C 738.169,431.654 721.669,453.154 687.5,461C 652.737,462.389 631.404,446.223 623.5,412.5C 620.759,387.986 629.426,368.653 649.5,354.5C 676.186,341.102 700.519,344.435 722.5,364.5 Z"/></g>
</svg>
